<?xml version="1.0" encoding="utf-8"?>
<!-- Generator: Adobe Illustrator 19.1.0, SVG Export Plug-In . SVG Version: 6.00 Build 0)  -->
<svg version="1.1" id="Layer_1" xmlns="http://www.w3.org/2000/svg" xmlns:xlink="http://www.w3.org/1999/xlink" x="0px" y="0px"
	 viewBox="0 0 132.4 139.3" style="enable-background:new 0 0 132.4 139.3;" xml:space="preserve">
<path d="M84.7,105c0,5.1-1.5,10.1-4,14.5c-8.6,14.6-26.6,19.8-42.6,19.8c-12.6,0-28-3.3-35-15c-2-3.3-3.1-7.1-3.1-11
	c0-9.5,5.9-17.3,13.6-22.2c9.8-6.1,22.5-7.6,33.8-8.4c-2.9-3.9-5.3-7.3-5.3-12.3c0-2.7,0.8-4.8,1.8-7.1c-1.9,0.2-3.8,0.3-5.7,0.3
	c-16.3,0-29.4-11.9-29.4-28.5c0-9.2,4.4-18.2,11.3-24.3C29.2,3.1,42,0,53.7,0h35L77.1,7.4h-11c7.8,6.6,12.6,14,12.6,24.5
	c0,21.7-19.8,24.1-19.8,34.7C58.8,77.7,84.7,81.4,84.7,105z M72.8,112.1c0-11.3-11.2-18.2-19.3-24c-1.3-0.2-2.7-0.2-4-0.2
	c-13.6,0-33.9,4.4-33.9,21.6c0,16.3,17.7,22.2,31.2,22.2C59.2,131.7,72.8,126.5,72.8,112.1z M58.7,53.6c3.4-3.7,4.4-8.4,4.4-13.3
	c0-12.4-7.3-33.4-22.4-33.4c-4.7,0-9.5,2.3-12.4,6c-3,3.8-3.9,8.7-3.9,13.4c0,12.6,7.1,32.3,22.2,32.3
	C50.8,58.6,55.8,56.6,58.7,53.6z M132.4,58.3v9h-17.8v18.3h-8.8V67.4H88.1v-9h17.7V40.2h8.8v18.2H132.4z"/>
</svg>
