<?xml version="1.0" encoding="utf-8"?>
<!-- Generator: Adobe Illustrator 19.1.0, SVG Export Plug-In . SVG Version: 6.00 Build 0)  -->
<svg version="1.1" id="Layer_1" xmlns="http://www.w3.org/2000/svg" xmlns:xlink="http://www.w3.org/1999/xlink" x="0px" y="0px"
	 viewBox="0 0 128.6 125.4" style="enable-background:new 0 0 128.6 125.4;" xml:space="preserve">
<path d="M84.6,125.3c-3.3,0.6-4.4-1.4-4.4-3.1c0-2.1,0-9,0-17.7c0-6-2-9.9-4.4-11.9c14.3-1.6,29.4-7,29.4-31.7
	c0-7-2.5-12.8-6.6-17.2c0.7-1.7,2.8-8.2-0.7-17.1c-5.4-1.7-17.7,6.6-17.7,6.6c-5.1-1.4-10.6-2.2-16.1-2.2s-11,0.8-16.1,2.2
	c0,0-12.3-8.3-17.7-6.6C27,35.5,29.2,42,29.9,43.7c-4.1,4.4-6.6,10.2-6.6,17.2c0,24.6,15,30.1,29.3,31.7c-1.8,1.7-3.5,4.4-4.1,8.6
	c-3.7,1.7-13.1,4.5-18.7-5.4c-3.5-6.1-9.9-6.6-9.9-6.6c-6.3-0.1-0.4,3.9-0.4,3.9c4.2,1.9,7.1,9.4,7.1,9.4
	c3.8,11.5,21.7,7.6,21.7,7.6c0,5.4,0.1,10.5,0.1,12c0,1.7-1.2,3.7-4.4,3.1C18.4,116.8,0,92.7,0,64.3C0,28.8,28.8,0,64.3,0
	s64.3,28.8,64.3,64.3C128.6,92.7,110.2,116.8,84.6,125.3z"/>
</svg>
