<?xml version="1.0" encoding="utf-8"?>
<!-- Generator: Adobe Illustrator 19.1.0, SVG Export Plug-In . SVG Version: 6.00 Build 0)  -->
<svg version="1.1" id="Layer_1" xmlns="http://www.w3.org/2000/svg" xmlns:xlink="http://www.w3.org/1999/xlink" x="0px" y="0px"
	 viewBox="0 0 139.3 117.9" style="enable-background:new 0 0 139.3 117.9;" xml:space="preserve">
<path d="M134.2,93.3c-11,22.4-41.4,24.5-63.2,24.5c-22.1,0-54.3-1.9-65.8-24.5C0.9,84.9,0,74.9,0,65.6c0-12.2,3.3-23.8,11.4-33.1
	C9.9,27.9,9.1,23,9.1,18.2C9.1,12,10.5,5.7,13.4,0c13.2,0,21.7,5.8,31.7,13.6c8.5-2,17.2-2.9,25.9-2.9c7.9,0,15.8,0.8,23.4,2.7
	C104.4,5.6,112.8,0,125.9,0c2.8,5.7,4.3,12,4.3,18.2c0,4.8-0.8,9.5-2.3,14.1c8,9.5,11.4,21.1,11.4,33.3
	C139.3,74.9,138.4,84.8,134.2,93.3z M99.1,56.3c-5.5,0-10.8,1-16.3,1.8c-4.4,0.7-8.7,0.9-13.1,0.9c-4.4,0-8.8-0.3-13.1-0.9
	c-5.4-0.8-10.8-1.8-16.3-1.8c-13.6,0-21.4,11.3-21.4,24.1c0,25.6,23.4,29.5,43.9,29.5h14.1c20.4,0,43.9-3.9,43.9-29.5
	C120.5,67.6,112.8,56.3,99.1,56.3z M42.9,96.4c-7.5,0-10.7-10-10.7-16.1s3.2-16.1,10.7-16.1c7.5,0,10.7,10,10.7,16.1
	S50.4,96.4,42.9,96.4z M96.4,96.4c-7.5,0-10.7-10-10.7-16.1s3.2-16.1,10.7-16.1c7.5,0,10.7,10,10.7,16.1S104,96.4,96.4,96.4z"/>
</svg>
