<?xml version="1.0" encoding="utf-8"?>
<!-- Generator: Adobe Illustrator 19.1.0, SVG Export Plug-In . SVG Version: 6.00 Build 0)  -->
<svg version="1.1" id="Layer_1" xmlns="http://www.w3.org/2000/svg" xmlns:xlink="http://www.w3.org/1999/xlink" x="0px" y="0px"
	 viewBox="0 0 88.6 139.3" style="enable-background:new 0 0 88.6 139.3;" xml:space="preserve">
<path d="M88.6,0L77.1,7.4H66c7.9,6.6,12.6,14,12.6,24.5c0,21.7-19.8,24.1-19.8,34.7c0,11,25.9,14.7,25.9,38.3
	c0,5.1-1.5,10.1-4.1,14.5c-8.5,14.6-26.5,19.8-42.5,19.8c-12.6,0-28-3.3-35.1-15c-2-3.3-3-7.1-3-11c0-9.5,5.9-17.3,13.6-22.2
	c9.8-6.1,22.5-7.6,33.8-8.4c-3-3.9-5.3-7.3-5.3-12.3c0-2.7,0.7-4.8,1.8-7.1c-1.9,0.2-3.8,0.3-5.7,0.3c-16.3,0-29.4-11.9-29.4-28.5
	c0-9.2,4.3-18.2,11.3-24.3C29.1,3.1,42,0,53.7,0H88.6z M53.5,88.1c-1.3-0.2-2.7-0.2-4.1-0.2c-13.6,0-33.8,4.4-33.8,21.6
	c0,16.3,17.6,22.2,31.2,22.2c12.4,0,26-5.2,26-19.6C72.8,100.8,61.6,93.9,53.5,88.1z M40.8,6.9c-4.7,0-9.5,2.3-12.5,6
	c-2.9,3.8-3.9,8.7-3.9,13.4c0,12.6,7.1,32.3,22.2,32.3c4.1,0,9.1-2,12-5c3.5-3.7,4.4-8.4,4.4-13.3C63,27.9,55.8,6.9,40.8,6.9z"/>
</svg>
