<?xml version="1.0" encoding="utf-8"?>
<!-- Generator: Adobe Illustrator 19.1.0, SVG Export Plug-In . SVG Version: 6.00 Build 0)  -->
<svg version="1.1" id="Layer_1" xmlns="http://www.w3.org/2000/svg" xmlns:xlink="http://www.w3.org/1999/xlink" x="0px" y="0px"
	 viewBox="0 0 131.9 107.1" style="enable-background:new 0 0 131.9 107.1;" xml:space="preserve">
<path d="M118.4,26.7c0.1,1.2,0.1,2.3,0.1,3.5c0,35.7-27.2,76.9-76.9,76.9C26.2,107.1,12,102.7,0,95c2.2,0.3,4.3,0.3,6.5,0.3
	c12.6,0,24.3-4.3,33.6-11.6c-11.9-0.3-21.8-8-25.3-18.8c1.7,0.3,3.3,0.4,5.1,0.4c2.4,0,4.9-0.3,7.1-0.9C14.6,62,5.4,51.1,5.4,38
	c0-0.1,0-0.3,0-0.3c3.6,2,7.8,3.3,12.2,3.4C10.3,36.2,5.5,28,5.5,18.6c0-5,1.3-9.6,3.7-13.6C22.5,21.3,42.5,32.1,65,33.2
	c-0.4-2-0.7-4.1-0.7-6.2c0-14.9,12.1-27,27-27c7.8,0,14.8,3.3,19.8,8.5c6.1-1.2,12-3.4,17.2-6.5c-2,6.3-6.3,11.6-11.9,14.9
	c5.4-0.6,10.7-2.1,15.6-4.2C128.2,18.1,123.6,22.9,118.4,26.7z"/>
</svg>
